<svg xmlns="http://www.w3.org/2000/svg"
     xmlns:xlink="http://www.w3.org/1999/xlink"
     viewBox="-300 0 1300 1000"
     width="1000px" height="769px">
  <title>Data on a Pātaka</title>
  <style>
    /* <![CDATA[ */
    @import url('https://fonts.googleapis.com/css2?family=Dosis&display=swap');
    /* ]]> */
  </style>
  <defs>
    <g id="file-copy">
      <path fill="#e6e6e6"
            d="M770.7 220.6H728v-42.8h42.8z"/>
      <path d="M770.7 220.6H728v-42.8h42.8zm6.1-42.8c0-3.4-2.7-6.1-6-6.1h-42.9a6.1 6.1 0 00-6 6v42.9c0 3.3 2.7 6 6 6h42.8c3.4 0 6.1-2.7 6.1-6z"/>
    </g>
    <g id="image-file"
       stroke-width="4">
      <path d="M4 2h28c1,0 2,1 2,2
            v28c0 1-1 2-2 2
            h-28c-1,0 -2,-1 -2-2
            v-28c0-1 1-2 2-2z"/>
      <path fill="none"
            d="M10 26l2-2.5 2.1 2.5zM18.4 26l3.8-5 3.8 5z"/>
    </g>
    <g id="encrypted-file"
       stroke-width="4"
       fill="#e6e6e6">
      <path d="M4 2h28c1,0 2,1 2,2
            v28c0 1-1 2-2 2
            h-28c-1,0 -2,-1 -2-2
            v-28c0-1 1-2 2-2z"/>
    </g>
    <g id="text-file"
       stroke-width="4">
      <path d="M4 2h18c.5 0 1.3.3 1.5.5l10 10c.4.4.5.9.5 1.5v18c0 1-1 2-2 2h-28c-1,0 -2,-1 -2-2v-28c0-1.2.8-2 2-2z"/>
      <path d="M8 10h14
               m-14 8h20
               m-20 8h20"/>
    </g>
  </defs>
  <g id="iphone">
    <rect id="i-base"
          width="160.5" height="328" x="635.7" y="126" ry="19.1"
          fill="none" stroke="#303030" stroke-width="7" />
    <rect id="i-inner-edge"
          width="157" height="324.5" x="637.5" y="127.7" ry="18.8"
          fill="#4d4d4d" stroke="#4d4d4d" stroke-width="3.5" />
    <path id="i-screen"
          fill="#fff" stroke-width="3.5"
          d="M642.7 147a14 14 0 0114-13.8H674s.2 12 10.5 12h62.8c10.3 0 10.5-12 10.5-12h17.4c7.4 0 14 5.1 14 13.7v284.5c0 9.8-5.1 16.2-18.3 16.2H661c-13.7 0-18.3-6-18.3-16.2z"/>
    <circle id="i-camera"
            cx="734.7" cy="136.9" r="3.5"
            fill="#fff" stroke-width="3.5"/>
    <path id="i-speaker"
          stroke="#999" stroke-width="3.5"
          d="M709 136h14"/>

    <g id="a-files-iphone"
      fill="#e9fbfb" stroke="#437a7a">

      <use id="a1-iphone"
           xlink:href="#text-file" x="656" y="170" />
      <!-- <use id="a2-iphone"
           xlink:href="#image-file" x="696" y="170"/>
      <use id="a3-iphone"
           xlink:href="#image-file" x="736" y="170"/> -->
    </g>

    <!-- <g id="b-files-iphone"
       fill="#fcf8e9" stroke="#f4d35d">
       <use id="b1-iphone"
            xlink:href="#text-file" x="656" y="212" />
      <use id="b2-iphone"
          xlink:href="#image-file" x="696" y="212" />
      <use id="b2-iphone"
           xlink:href="#image-file" x="736" y="212" />
      <use id="b4-iphone"
          xlink:href="#text-file" x="656" y="254" />
      <use id="b5-iphone"
           xlink:href="#text-file" x="696" y="254" />
    </g> -->
    <g id="locked-files-iphone">
      <use id="c1-iphone-locked"
           stroke="#8a7090"
           xlink:href="#encrypted-file" x="656" y="392"
           style="transform-origin:632px 300px 0px;"/>
      <rect id="a1-iphone-highlight"
         x="694" y="390" width="40" height="40"
         fill="#5ab5b5" filter="url(#highlight-blur)"
         style="transform-origin: 714px 410px 0px; transform: scale(1);"/>
      <use id="a1-iphone-locked"
           stroke="#437a7a"
           xlink:href="#encrypted-file" x="696" y="392"
           style="transform-origin:632px 300px 0px;"/>
      <use id="b1-iphone-locked"
           stroke="#f4d35d"
           xlink:href="#encrypted-file" x="736" y="392"
           style="transform-origin:632px 300px 0px;"/>
      <use id="b2-iphone-locked"
           stroke="#f4d35d"
           xlink:href="#encrypted-file" x="656" y="350"
           style="transform-origin:632px 300px 0px;"/>
      <use id="c2-iphone-locked"
           stroke="#8a7090"
           xlink:href="#encrypted-file" x="696" y="350"
           style="transform-origin:632px 300px 0px;"/>
      <use id="c3-iphone-locked"
           stroke="#8a7090"
           xlink:href="#encrypted-file" x="736" y="350"
           style="transform-origin:632px 300px 0px;"/>
      <!-- <use id="c4-iphone-locked"
           xlink:href="#encrypted-file" x="736" y="350"
           style="transform-origin:632px 300px 0px;"/> -->
     </g>
     <g id="sync-1a-overlay"
        stroke="#ddd">
        <use xlink:href="#encrypted-file" x="656" y="392"/>
        <use xlink:href="#encrypted-file" x="736" y="392"/>
        <use xlink:href="#encrypted-file" x="656" y="350"/>
        <use xlink:href="#encrypted-file" x="696" y="350"/>
        <use xlink:href="#encrypted-file" x="736" y="350"/>
     </g>
  </g>

  <g id="android">
    <rect id="a-base"
          width="161" height="329" x="635.5" y="545" ry="16.8"
          fill="none" stroke="#303030" stroke-width="7" />
    <rect id="a-inner-edge"
          width="157.5" height="325.5" x="637.3" y="546.8" ry="15.4"
          fill="#4d4d4d" stroke="#4d4d4d" stroke-width="3.5"/>
    <path fill="#fff"
          stroke-width="3.5"
          d="M639 562.5h154v280H639z"/>
    <circle id="a-camera"
            cx="779" cy="552" r="3.5"
            fill="#fff" stroke-width="3.5"/>
    <path id="a-speaker"
          stroke="#999" stroke-width="3.5"
          d="M709 550.3h14"/>
    <path id="a-microphone"
          stroke="#999" stroke-width="3.5"
          d="M695 858.3h42"/>

    <g id="c-files-android"
       fill="#f5edf7" stroke="#8a7090">
      <use id="c1-android"
          xlink:href="#image-file" x="656" y="582" />
      <use id="c2-android"
           xlink:href="#image-file" x="696" y="582" />
      <use id="c3-android"
          xlink:href="#text-file" x="736" y="582" />
      <!-- <use id="c4-android"
          xlink:href="#text-file" x="656" y="624" />
      <use id="c4-android-copy"
          xlink:href="#encrypted-file" x="656" y="624"
          style="transform-origin:631.2px 620px 0px;"/> -->
    </g>
    <!-- <g id="a-files-android"
       stroke="#437a7a">
      <use id="a1-android-copy"
           xlink:href="#encrypted-file" x="736" y="708"
           style="transform-origin:632.5px 350.3px 0px;"/>
      <use id="a2-android-copy"
           xlink:href="#encrypted-file" x="696" y="708"
           style="transform-origin:632.5px 350.3px 0px;"/>
      <use id="a3-android-copy"
           xlink:href="#encrypted-file" x="656" y="750"
           style="transform-origin:632.5px 350.3px 0px;"/>
    </g>
    <g id="b-files-android"
       stroke="#f4d35d">

      <use id="b3-android-copy"
           xlink:href="#encrypted-file" x="736" y="792"
           style="transform-origin:632.5px 350.3px 0px;"/>
      <use id="b4-android-copy"
           xlink:href="#encrypted-file" x="656" y="792"
           style="transform-origin:632.5px 350.3px 0px;"/>
      <use id="b5-android-copy"
           xlink:href="#encrypted-file" x="696" y="792"
           style="transform-origin:632.5px 350.3px 0px;"/>
    </g> -->
    <g id="locked-files-android">
      <rect id="c1-android-highlight"
         x="654" y="790" width="40" height="40"
         fill="hsl(289, 40%, 66%)" filter="url(#highlight-blur)"
         style="transform-origin: 674px 810px 0px; transform: scale(0);"/>
      <use id="c1-android-locked"
           stroke="#8a7090"
           xlink:href="#encrypted-file" x="656" y="792"
           style="transform-origin:630px 680px 0px;"/>

      <use id="a1-android-locked"
           stroke="#437a7a"
           xlink:href="#encrypted-file" x="696" y="792"
           style="transform-origin:630px 680px 0px;"/>
      <use id="b1-android-locked"
           stroke="#f4d35d"
           xlink:href="#encrypted-file" x="736" y="792"
           style="transform-origin:630px 680px 0px;"/>
      <use id="b2-android-locked"
           stroke="#f4d35d"
           xlink:href="#encrypted-file" x="656" y="750"
           style="transform-origin:630px 680px 0px;"/>

      <rect id="c2-android-highlight"
        x="694" y="748" width="40" height="40"
        fill="hsl(289, 40%, 66%)" filter="url(#highlight-blur)"
        style="transform-origin: 714px 768px 0px; transform: scale(0);"/>
      <use id="c2-android-locked"
           stroke="#8a7090"
           xlink:href="#encrypted-file" x="696" y="750"
           style="transform-origin:630px 680px 0px;"/>
      <rect id="c3-android-highlight"
        x="734" y="748" width="40" height="40"
        fill="hsl(289, 40%, 66%)" filter="url(#highlight-blur)"
        style="transform-origin: 754px 768px 0px; transform: scale(0);"/>
      <use id="c3-android-locked"
           stroke="#8a7090"
           xlink:href="#encrypted-file" x="736" y="750"
           style="transform-origin:630px 680px 0px;"/>
    </g>
    <g id="sync-1c-overlay"
       stroke="#ddd">
      <use xlink:href="#encrypted-file" x="696" y="792"/>
      <use xlink:href="#encrypted-file" x="736" y="792"/>
      <use xlink:href="#encrypted-file" x="656" y="750"/>
    </g>
  </g>

  <g id="keys">
    <path id="key-a"
          fill="none" stroke="#437a7a"
          stroke-linecap="butt" stroke-linejoin="round" stroke-width="10"
          style="transform-origin: 890px 232.5px 0px;"
          d="M872.7 232.5v12.7m33.6-12.7h-48.5v12.8m77.1-12.8c0 8.4-6.4 15.2-14.3 15.2-8 0-14.3-6.8-14.3-15.2 0-8.4 6.4-15.2 14.3-15.2 8 0 14.3 6.8 14.3 15.2z"/>
    <path id="key-b"
          fill="none" stroke="#f4d35d"
          stroke-linecap="butt" stroke-linejoin="round" stroke-width="10"
          style="transform-origin: 890px 299px 0px;"
          d="M872.7 299v12.7m33.6-12.7h-48.5v12.8m77.1-12.8c0 8.4-6.4 15.2-14.3 15.2-8 0-14.3-6.8-14.3-15.2 0-8.4 6.4-15.2 14.3-15.2 8 0 14.3 6.8 14.3 15.2z"/>
    <path id="key-c"
          fill="none" stroke="#8a7090"
          stroke-linecap="butt" stroke-linejoin="round" stroke-width="10"
          style="transform-origin: 890px 642.5px 0px;"
          d="M872.7 642.5v12.7m33.6-12.7h-48.5v12.8m77.1-12.8c0 8.4-6.4 15.2-14.3 15.2-8 0-14.3-6.8-14.3-15.2 0-8.4 6.4-15.2 14.3-15.2 8 0 14.3 6.8 14.3 15.2z" />
  </g>

  <g id="pātaka-imac">
    <g id="imac-stand">
      <path fill="#4c4c4c"
            d="M295.2 644.6H154.7c15.7-14.6 23.6-22.5 23.6-38.3 0-23.6-7.9-23.6-7.9-23.6H280s-7.9 0-7.9 23.6c0 15.8 7.9 23.7 22.5 38.3z"/>
      <path fill="#737373"
            d="M157.5 643.5c13.5-13.5 15.7-16.9 20.8-29.3 31.5 23 61.8 23 93.3 0 4.5 13.5 6.2 14 21.3 29.3z"/>
      <path fill="none" stroke="#303030"
            stroke-linejoin="round" stroke-width=".5"
            d="M295.2 644.6H154.7c15.7-14.6 23.6-22.5 23.6-38.3 0-23.6-7.9-23.6-7.9-23.6H280s-7.9 0-7.9 23.6c0 15.8 7.9 23.7 22.5 38.3z"/>
    </g>
    <rect width="398.9" height="243.1" x="25.5" y="355.4" rx="15.7" ry="15.8"
          fill="#4c4c4c" stroke="#303030"
          stroke-linecap="round" stroke-linejoin="round" stroke-width=".5" />
    <circle cx="228.3" cy="363.3" r="3.9"
            fill="#737373"/>
    <rect id="imac-screen"
          width="383.2" height="203.7" x="33.4" y="371.1"
          fill="#fff" />

    <g id="pātaka-files">
      <defs>
        <g id="pātaka-file">
          <path d="M151 489h-32.1v-32h32zm4.6-32c0-2.6-2.1-4.6-4.6-4.6h-32.1c-2.5 0-4.6 2-4.6 4.5V489c0 2.6 2 4.6 4.6 4.6h32c2.6 0 4.7-2 4.7-4.6z"/>
          <path fill="#e6e6e6"
              d="M151 489h-32.1v-32h32z"/>
        </g>
        <filter id="highlight-blur"
                x="-50%" y="-50%" width="200%" height="200%">
          <feGaussianBlur in="SourceGraphic" stdDeviation="6" />
        </filter>
      </defs>

      <g id="group-a-files"
         fill="#437a7a">
        <use id="a1-copy-to-iphone"
             xlink:href="#a1"
             style="transform-origin: 424px 372px 0px;"
             opacity="0.5"/>
        <use id="a1-copy-to-android"
             xlink:href="#a1"
             style="transform-origin:424px 555px 0px;"
             opacity="0.5"/>
        <rect id="a1-highlight"
             x="111" y="449" width="48" height="48"
             fill="#5ab5b5" filter="url(#highlight-blur)"
             style="transform-origin: 135px 473px 0px; transform: scale(0);"/>
        <use id="a1"
             xlink:href="#pātaka-file" x="0" y="0"
             style="transform-origin: 75px 354px 0px;" />

        <use id="a2-copy-to-iphone"
            xlink:href="#a2"
            style="transform-origin: 424px 372px 0px;"
            opacity="0.5"/>
        <use id="a2-copy-to-android"
            xlink:href="#a2"
            style="transform-origin:424px 555px 0px;"
            opacity="0.5"/>
        <rect id="a2-highlight"
              x="231" y="394" width="48" height="48"
              fill="#5ab5b5" filter="url(#highlight-blur)"
              style="transform-origin: 255px 418px 0px; transform: scale(0);"/>
        <use id="a2" xlink:href="#pātaka-file" x="120" y="-55"
             style="transform-origin: 206px 370px 0px;" />

        <!-- ↓ a3 moved below group-c-files ↓ -->
      </g>

      <g id="group-b-files"
         fill="#f4d35d">

        <use id="b1-copy-to-iphone"
            xlink:href="#b1"
            style="transform-origin: 424px 372px 0px;"
            opacity="0.5"/>
        <use id="b1-copy-to-android"
            xlink:href="#b1"
            style="transform-origin:424px 555px 0px;"
            opacity="0.5"/>
        <rect id="b1-highlight"
            x="111" y="504" width="48" height="48"
            fill="hsl(47, 93%, 75%)" filter="url(#highlight-blur)"
            style="transform-origin: 135px 528px 0px; transform: scale(0);"/>
        <use id="b1"
             xlink:href="#pātaka-file" x="0" y="55"
             style="transform-origin: -67px 435px 0px;" />

        <use id="b2-copy-to-iphone"
            xlink:href="#b2"
            style="transform-origin: 424px 372px 0px;"
            opacity="0.5"/>
        <use id="b2-copy-to-android"
            xlink:href="#b2"
            style="transform-origin:424px 555px 0px;"
            opacity="0.5"/>
        <rect id="b2-highlight"
            x="171" y="394" width="48" height="48"
            fill="hsl(47, 93%, 75%)" filter="url(#highlight-blur)"
            style="transform-origin: 195px 418px 0px; transform: scale(0);"/>
        <use id="b2"
            xlink:href="#pātaka-file" x="60" y="-55"
            style="transform-origin: -36px 450px 0px;" />

        <use id="b3-copy-to-iphone"
           xlink:href="#b3"
           style="transform-origin: 424px 372px 0px;"
           opacity="0.5"/>
        <use id="b3-copy-to-android"
           xlink:href="#b3"
           style="transform-origin:424px 555px 0px;"
           opacity="0.5"/>
        <rect id="b3-highlight"
              x="231" y="449" width="48" height="48"
              fill="hsl(47, 93%, 75%)" filter="url(#highlight-blur)"
              style="transform-origin: 255px 473px 0px; transform: scale(0);"/>
        <use id="b3"
             style="transform-origin: 32px 475px 0px"
             xlink:href="#pātaka-file" x="120" y="0" />

        <use id="b4-copy-to-iphone"
             xlink:href="#b4"
             style="transform-origin: 424px 372px 0px;"
             opacity="0.5"/>
        <use id="b4-copy-to-android"
             xlink:href="#b4"
             style="transform-origin:424px 555px 0px;"
             opacity="0.5"/>
        <rect id="b4-highlight"
                 x="231" y="504" width="48" height="48"
                 fill="hsl(47, 93%, 75%)" filter="url(#highlight-blur)"
                 style="transform-origin: 255px 528px 0px; transform: scale(0);"/>
        <use id="b4"
             xlink:href="#pātaka-file" x="120" y="55"
             style="transform-origin: 32px 569px 0px"/>
        <!-- ↓ b5 moved below group-c-files ↓ -->
      </g>

      <g id="group-c-files"
         fill="#8a7090">

        <use id="c1-copy-to-iphone"
             xlink:href="#c1"
             style="transform-origin: 424px 372px 0px;"
             opacity="0.5"/>
        <use id="c1-copy-to-android"
             xlink:href="#c1"
             style="transform-origin:424px 555px 0px;"
             opacity="0.5"/>
        <rect id="c1-highlight"
              x="111" y="394" width="48" height="48"
              fill="hsl(289, 40%, 66%)" filter="url(#highlight-blur)"
              style="transform-origin: 135px 418px 0px; transform: scale(0);" />
        <use id="c1"
             xlink:href="#pātaka-file" x="0" y="-55"
             style="transform-origin:71px 603px 0px;"/>

        <use id="c2-copy-to-iphone"
             xlink:href="#c2"
             style="transform-origin: 424px 372px 0px;"
             opacity="0.5"/>
        <use id="c2-copy-to-android"
             xlink:href="#c2"
             style="transform-origin:424px 555px 0px;"
             opacity="0.5"/>
        <rect id="c2-highlight"
              x="171" y="449" width="48" height="48"
              fill="hsl(289, 40%, 66%)" filter="url(#highlight-blur)"
              style="transform-origin: 195px 473px 0px; transform: scale(0);" />
        <use id="c2"
             xlink:href="#pātaka-file" x="60" y="0"
             style="transform-origin:190px 600px 0px;" />

        <use id="c3-copy-to-iphone"
             xlink:href="#c3"
             style="transform-origin: 424px 372px 0px;"
             opacity="0.5"/>
        <use id="c3-copy-to-android"
             xlink:href="#c3"
             style="transform-origin:424px 555px 0px;"
             opacity="0.5"/>
        <rect id="c3-highlight"
              x="171" y="504" width="48" height="48"
              fill="hsl(289, 40%, 66%)" filter="url(#highlight-blur)"
              style="transform-origin: 195px 528px 0px; transform: scale(0);" />
        <use id="c3"
             xlink:href="#pātaka-file" x="60" y="55"
             style="transform-origin:255px 603px 0px;" />

        <use id="c4-copy-to-iphone"
             xlink:href="#c4"
             style="transform-origin: 424px 372px 0px;"
             opacity="0.5"/>
        <use id="c4-copy-to-android"
             xlink:href="#c4"
             style="transform-origin:424px 555px 0px;"
             opacity="0.5"/>
        <rect id="c4-highlight"
               x="291" y="394" width="48" height="48"
               fill="hsl(289, 40%, 66%)" filter="url(#highlight-blur)"
               style="transform-origin: 315px 418px 0px; transform: scale(0);" />
        <use id="c4"
             xlink:href="#pātaka-file" x="180" y="-55"
             style="transform-origin: 280px 555px 0px;"/>
      </g>
      <use id="b5-copy"
           xlink:href="#b5"
           style="transform-origin: 425px 415px 0px; transform: scale(1);"
           opacity="0.5"/>
      <rect id="b5-highlight"
            x="291" y="449" width="48" height="48"
            fill="hsl(47, 93%, 75%)" filter="url(#highlight-blur)"
            style="transform-origin: 315px 473px 0px; transform: scale(0);"/>
      <g id="b5"
         fill="#f4d35d"
         style="transform-origin: 32px 395px 0px">
        <use xlink:href="#pātaka-file" x="180" y="0" />
      </g>

      <g id="a3"
         fill="#437a7a"
         style="transform-origin: 328px 370px 0px">
        <use id="a3-copy"
            xlink:href="#pātaka-file" x="180" y="55"
            style="transform-origin: 424px 372px 0px;"
            opacity="0.5"/>
        <rect id="a3-highlight"
              x="291" y="504" width="48" height="48"
              fill="#5ab5b5" filter="url(#highlight-blur)"
              style="transform-origin: 315px 528px 0px; transform: scale(0);" />
         <use xlink:href="#pātaka-file" x="180" y="55" />
      </g>

      <g id="pātaka-overlay"
         fill="#ddd" style="opacity:0;">
        <use xlink:href="#pātaka-file" x="0" y="-55"/>
        <use xlink:href="#pātaka-file" x="0" y="0"/>
        <use xlink:href="#pātaka-file" x="0" y="55"/>
        <use xlink:href="#pātaka-file" x="60" y="-55"/>
        <use xlink:href="#pātaka-file" x="60" y="0"/>
        <use xlink:href="#pātaka-file" x="60" y="55"/>
      </g>

    </g>
  </g>

  <defs id="group-icons">
    <g id="laptop"
       style="transform-origin:24px 24px 0px;" transform="scale(2.5)"
       stroke-width=".5" stroke-linejoin="round" stroke-linecap="butt" >
      <path id="laptop-screen-bg"
             stroke="none"
             d="M42.42 32.2V10.36a.29.29 0 00-.29-.29H5.87a.29.29 0 00-.29.29v21.82z"/>
      <path id="laptop-screen-bg"
            stroke="none" fill="#000" fill-opacity=".2"
            d="M42.42 32.2V10.36a.29.29 0 00-.29-.29H5.87a.29.29 0 00-.29.29v21.82z"/>
      <path id="laptop-keyboard-bg"
            stroke="none"
            d="M5.58 32.2l-5.61 4.7V38H47.5v-1l-5.36-4.52z"/>
      <rect id="laptop-screen"
            fill="#fff" stroke="none"
            width="36" height="17.67" x="6" y="13"/>
      <circle id="laptop-camera"
              fill="#999"
              cx="24" cy="11.5" r=".25" />
      <path id="laptop-keyboard"
            fill="none" stroke-width=".25"
            d="M6 34.13h36 M7 33.13h33.99 M5 35.13h12m14.04 0H43 M17.76 35.13h12.5l1.24 2h-15z"/>
      <path id="laptop-front-edge"
            fill="none" stroke-width=".5"
            d="M47.5 37.25H.5"/>
      <path id="laptop-edge-shadow"
            fill="none" stroke="#000" opacity=".2"
            d="M47.5 37.75H.5"/>
      <path id="laptop-outline"
            fill="none" stroke="#303030"
            d="M.25 36.88 v1.37 h47.5 v-1.38 l-5.5-4.37 v-22 c0-.16-.1-.25-.25-.25 H6 c-.16 0-.25.1-.25.25 v22 z
               M6 32.25 H42"/>
    </g>
    <g id="mobile"
       style="transform-origin:24px 24px 0px;" transform="scale(2)"
       stroke-width="0.5" stroke-linecap="butt" >
      <rect id="mobile-base"
            fill="none" stroke="#303030" stroke-width="1"
            width="23" height="47" x="12.5" y="0.5" ry="2.4"/>
      <rect id="mobile-inner-edge"
            width="22.5" height="46.5" x="12.75" y=".75" ry="2.2"/>
      <rect id="mobile-screen"
            fill="#fff" stroke="none"
            width="22" height="40" x="13" y="3"/>
      <circle id="mobile-camera"
              fill="#fff" stroke="none"
              cx="33" cy="1.5" r=".5"/>
      <path id="mobile-speaker"
            stroke="#999"
            d="M23 1.5h2"/>
      <path id="mobile-microphone"
            stroke="#999"
            d="M21 45.25h6"/>
    </g>
    <path id="key"
          fill="none"
          stroke-linecap="butt" stroke-linejoin="round" stroke-width="10"
          d="M0 0v12.7
          m33.6-12.7h-48.5v12.8
          m77.1-12.8c0 8.4-6.4 15.2-14.3 15.2-8 0-14.3-6.8-14.3-15.2 0-8.4 6.4-15.2 14.3-15.2 8 0 14.3 6.8 14.3 15.2z"/>
  </defs>
  <g id="group-a"
     fill="#5ab5b5" stroke="#437a7a">
    <use xlink:href="#laptop" x="310" y="120"/>
    <use xlink:href="#laptop" x="70" y="120"/>
    <use xlink:href="#mobile" x="190" y="110"/>
    <use xlink:href="#key" x="170" y="120"
         stroke="#437a7a"
         transform="scale(.5)"/>
    <use xlink:href="#key" x="408" y="120"
        stroke="#437a7a"
        transform="scale(.5)"/>
   <use xlink:href="#key" x="650" y="120"
       stroke="#437a7a"
       transform="scale(.5)"/>
  </g>
  <g id="group-b"
     fill="#f4d35d" stroke="hsl(47, 74%, 20%)">
    <use xlink:href="#laptop"
         x="-160" y="340"/>
    <use xlink:href="#key"
         x="-520" y="720"
         stroke="#f4d35d"
         transform="scale(.5)"/>
    <use xlink:href="#laptop"
         x="-160" y="560"/>
    <use xlink:href="#key"
         x="-520" y="950"
         stroke="#f4d35d"
         transform="scale(.5)"/>
    <use xlink:href="#mobile"
         x="-160" y="450"/>
    <use xlink:href="#key"
         x="-520" y="1170"
         stroke="#f4d35d"
         transform="scale(.5)"/>
  </g>
  <g id="group-c"
     fill="#8a7090" stroke="#34033f">
    <use xlink:href="#laptop"
         x="90" y="810"/>
    <use xlink:href="#key"
         x="200" y="1800"
         stroke="#8a7090"
         transform="scale(.5)"/>
    <use xlink:href="#laptop"
         x="240" y="810"/>
    <use xlink:href="#key"
         x="505" y="1800"
         stroke="#8a7090"
         transform="scale(.5)"/>
    <use xlink:href="#mobile"
         x="368" y="802"/>
    <use xlink:href="#key"
         x="764" y="1800"
         stroke="#8a7090"
         transform="scale(.5)"/>
  </g>

  <defs id="markers">
    <marker id="marker-curve-a"
            orient="auto" overflow="visible" refX="0" refY="0">
      <path fill="none" stroke="#437a7a"
            stroke-linecap="round" stroke-linejoin="round" stroke-width="1"
            d="M2.4 2.1l-3-2 3-2"/>
    </marker>
    <marker id="marker-curve-b"
            orient="auto" overflow="visible" refX="0" refY="0">
      <path fill="none" stroke="#f4d35d"
            stroke-linecap="round" stroke-linejoin="round" stroke-width="1"
            d="M2.4 2.1l-3-2 3-2"/>
    </marker>
    <marker id="marker-curve-bottom"
            orient="auto" overflow="visible" refX="0" refY="0">
      <path fill="none" stroke="#8a7090"
            stroke-linecap="round" stroke-linejoin="round" stroke-width="1"
            d="M2.4 2.1l-3-2 3-2"/>
    </marker>
    <marker id="marker-a"
            orient="auto" overflow="visible" refX="0" refY="0">
      <path fill="#437a7a"
            d="M-10.69-4.44L1.33-.02-10.7 4.4a7.52 7.52 0 000-8.84z"/>
    </marker>
    <marker id="marker-b"
            orient="auto" overflow="visible" refX="0" refY="0">
      <path fill="#f4d35d"
            d="M-10.69-4.44L1.33-.02-10.7 4.4a7.52 7.52 0 000-8.84z"/>
    </marker>
    <marker id="marker-c"
            orient="auto" overflow="visible" refX="0" refY="0">
      <path fill="#8a7090"
            d="M-10.69-4.44L1.33-.02-10.7 4.4a7.52 7.52 0 000-8.84z"/>
    </marker>
  </defs>

  <g id="arrows"
     stroke-width="4" stroke-linecap="round">
    <g id="refresh-android"
       fill="none" stroke="#8a7090"
       marker-start="url(#marker-curve-bottom)"
       style="transform-origin:716px 710px 0px;">
      <path d="m 744.3,738.3 c -7.2,7.2 -17.2,11.7 -28.3,11.7 -22.1,0 -40,-17.9 -40,-40"/>
      <path d="m 687.7,681.7 c 7.2,-7.2 17.2,-11.7 28.3,-11.7 22.1,0 40,17.9 40,40"/>
    </g>
    <g id="refresh-iphone"
       fill="none" stroke="#437a7a"
       marker-start="url(#marker-curve-a)"
       style="transform-origin:716px 290px 0px;">
      <path d="m 744.3,318.3 c -7.2,7.2 -17.2,11.7 -28.3,11.7 -22.1,0 -40,-17.9 -40,-40"/>
      <path d="m 687.7,261.7 c 7.2,-7.2 17.2,-11.7 28.3,-11.7 22.1,0 40,17.9 40,40"/>
    </g>
    <g id="uploads">
      <path id="upload-a1"
            stroke="#437a7a"
            marker-end="url(#marker-a)"
            style="transform-origin:100px 182px 0px;"
            d="m 100,182 65,172"/>
      <path id="upload-a2"
            stroke="#437a7a"
            marker-end="url(#marker-a)"
            style="transform-origin:135px 182px 0px;"
            d="m 135,182 87.5,172.176"/>
      <path id="upload-b1"
            stroke="#f4d35d"
            marker-end="url(#marker-b)"
            style="transform-origin:-84px 365px 0px;"
            d="m -87,365 110, 70"/>
      <path id="upload-b2"
            stroke="#f4d35d"
            marker-end="url(#marker-b)"
            style="transform-origin:-110px 475px 0px;"
            d="m -110,475 134, -25"/>
      <path id="upload-b3"
            stroke="#f4d35d"
            marker-end="url(#marker-b)"
            style="transform-origin:-110px 475px 0px;"
            d="m -110,475 h134"/>
      <path id="upload-b4"
            stroke="#f4d35d"
            marker-end="url(#marker-b)"
            style="transform-origin:-88px 590px 0px;"
            d="m -88,590 l112, -19"/>
      <path id="upload-b5"
            stroke="#f4d35d"
            marker-end="url(#marker-b)"
            style="transform-origin:-84px 365px 0px;"
            d="m -87,365 110, 30"/>
      <path id="upload-a3"
            stroke="#437a7a"
            marker-end="url(#marker-a)"
            style="transform-origin:340px 183px 0px;"
            d="m 340,183 -10,170"/>
      <path id="upload-c1"
            stroke="#8a7090"
            marker-end="url(#marker-c)"
            style="transform-origin:110px 798px 0px;"
            d="m 110,798 51,-195"/>
      <path id="upload-c3"
            stroke="#8a7090"
            marker-end="url(#marker-c)"
            style="transform-origin:385px 780px 0px;"
            d="m 385,780 -85,-180"/>
      <path id="upload-c2"
            stroke="#8a7090"
            marker-end="url(#marker-c)"
            style="transform-origin:250px 798px 0px;"
            d="m 250,798 5,-195"/>
      <path id="upload-c4"
            stroke="#8a7090"
            marker-end="url(#marker-c)"
            style="transform-origin:280px 798px 0px;"
            d="m 280,798 16,-195"/>
    </g>

    <path id="sync-request-iphone"
          stroke="#437a7a"
          marker-end="url(#marker-a)"
          style="transform-origin:632px 292px 0px;"
          d="M632 292L425.5 402"/>
    <path id="sync-request-android"
          stroke="#8a7090"
          stroke-width="4"
          marker-end="url(#marker-c)"
          style="transform-origin:632px 710px 0px;"
          d="M632 710L425.1 561.8" />
    <path id="response-files-iphone"
          stroke="#437a7a"
          marker-end="url(#marker-a)"
          style="transform-origin:425px 372px 0px;"
          d="M424 372L632 300" />
    <path id="response-files-android"
          fill="none" stroke="#8a7090"
          marker-end="url(#marker-c)"
          style="transform-origin:425px 555px 0px;"
          d="M425 555L630 680" />
  </g>

  <g id="labels"
    font-family="'Dosis', IBM Plex Sans, sans-serif" font-size="32"
    text-anchor="middle">
    <text id="label-pātaka"
          fill="#d54848"
          x="225" y="700"
          font-weight="bold"
          >Pātaka</text>
    <text id="label-member-a"
          fill="hsl(180, 74%, 17%)"
          x="715" y="496"
          >Member of Group A</text>
    <text id="label-member-a-b"
          fill="hsl(180, 74%, 17%)"
          x="715" y="496"
          >Member of Groups A &amp; B</text>
    <text id="label-member-c"
          fill="#34033f"
          x="715" y="920"
          >Member of Group C</text>
    <g font-size="24">
      <text id="label-group-a"
            fill="hsl(180, 74%, 17%)"
            x="225" y="220"
            >Group A</text>
      <text id="label-group-b"
            fill="hsl(47, 74%, 20%)"
            x="-140" y="670"
            >Group B</text>
      <text id="label-group-c"
            fill="#34033f"
            x="225" y="945"
            >Group C</text>
    </g>
  </g>
  <script xlink:href="script.js" />
</svg>
