<svg xmlns="http://www.w3.org/2000/svg" id="svg8" version="1.1"
     viewBox="0 0 425 234"
     style="background: var(--mā)">
  <style>
    :root {
    --pango: hsl(0, 0%, 19%);
    --pango-tint-a: hsl(0, 0%, 30%);
    --pango-tint-b: hsl(0, 0%, 45%);
    --pango-tint-c: hsl(0, 0%, 60%);

    --whero: hsl(0, 65%, 42%);
    --whero-tint-a: hsl(0, 63%, 56%);
    --whero-tint-b: hsl(0, 85%, 74%);
    --whero-shade-a: hsl(0, 93%, 16%);

    --kārikiōrangi: hsl(180, 29%, 37%) ;
    --kārikiōrangi-shade-a: hsl(180, 74%, 9%);
    --kārikiōrangi-tint-a: hsl(180, 38%, 53%);
    --kārikiōrangi-tint-b: hsl(180, 72%, 80%);

    --mā: hsl(0, 0%, 100%);
    --mā-shade-c: hsl(0, 0%, 90%);
    --mā-shade-b: hsl(0, 0%, 95%);
    --mā-shade-a: hsl(0, 0%, 98%);

    --kōwhai: hsl(47, 87%, 66%);
    --kōwhai-shade-b: hsl(47, 74%, 40%);
    --kōwhai-shade-a: hsl(47, 77%, 46%);
    --kōwhai-tint-a: hsl(47, 74%, 73%);

    --waiporoporo: #8a7090;
    --waiporoporo-shade-b: hsl(289, 91%, 13%);
    --waiporoporo-shade-a: hsl(289, 40%, 30%);
    --waiporoporo-tint-a: hsl(289, 40%, 66%);
    }

    #router-request, #request-label { animation: fade-in-router-request 20s linear infinite; }
    @keyframes fade-in-router-request {
      0%, 10% { opacity: 0; }
      12%, 100% { opacity: 1; }
    }
    #port-request { animation: fade-in-port-request 20s ease-in-out infinite; }
    @keyframes fade-in-port-request {
      0%, 12% { opacity: 0; }
      14%, 100% { opacity: 1; }
    }
    #internet-request { animation: slide-request 20s linear infinite; }
    @keyframes slide-request {
      0%, 12% { transform: translateX(6px); }
      14% { transform: translateX(0); }
    }

    #port-arrow { animation: fade-port-arrow 20s linear infinite; }
    @keyframes fade-port-arrow {
      0%, 16% { opacity: 0; transform: scaleX(0); }
      17% { opacity: 1; }
      22%, 100% { transform: scaleX(1); opacity: 1; }
    }

    .failure-arrow, #failure-arrow-laptop { animation: expand-right 20s cubic-bezier(.47,.63,.6,1.14) infinite; }
    @keyframes expand-right {
      0%, 20% { opacity: 0; transform: scale(0,0); }
      28%, 100% { opacity: 1; transform: scale(1,1); }
    }
    #mobile-x, #imac-x, #laptop-x { animation: fade-in-x 20s linear infinite; }
    @keyframes fade-in-x {
      0%, 22% { opacity: 0; transform: scale(0); }
      28%, 100% { opacity: 1; transform: scale(1); }
    }

    #fade-in-out { animation: fadeout 20s linear infinite forwards; }
    @keyframes fadeout {
      5%, 90% { opacity: 0; }
      0%, 96%, 100% { opacity: 1; }
    }
  </style>
  <defs>
    <marker id="disconnection-pointer"
            orient="auto" overflow="visible" refX="0" refY="0">
      <path fill="var(--pango-tint-c)"
            d="M-5.2-2.4L1.3 0l-6.5 2.4c1-1.4 1-3.4 0-4.8z"
            transform="scale(1.8)"/>
    </marker>
    <marker id="connection-pointer"
            orient="auto" overflow="visible" refX="0" refY="0">
      <path fill="var(--whero-tint-a)"
            d="M-5.2-2.4L1.3 0l-6.5 2.4c1-1.4 1-3.4 0-4.8z"/>
    </marker>
    <marker id="router-pointer"
            orient="auto" overflow="visible" refX="0" refY="0">
      <path fill="var(--kārikiōrangi-tint-a)"
            d="M-5.2-2.4L1.3 0l-6.5 2.4c1-1.4 1-3.4 0-4.8z"/>
    </marker>
  </defs>
  <g id="arrows"
     fill="none" stroke-linecap="round" stroke-linejoin="round" stroke-width=".5">
     <g id="internet-to-router-arrow"
        style="transform-origin:73.2px 140.6px 0px">
      <path id="port-arrow"
            stroke="var(--whero-tint-a)"
            stroke-linejoin="round" stroke-width="1"
            marker-end="url(#connection-pointer)"
            style="transform-origin:73.2px 140.6px 0px"
            d="M73.2 139.1h130"/>
    </g>
    <g id="failure-arrows"
       stroke-dasharray="3 2">
      <path id="failure-arrow-laptop"
            stroke="var(--pango-tint-c)" marker-end="url(#disconnection-pointer)"
            style="transform-origin:204px 140.6px 0px"
            d="M213.2 136.3l80 -30.4"/>
      <path id="router-to-mobile" class="failure-arrow"
            stroke="var(--pango-tint-c)" marker-end="url(#disconnection-pointer)"
            style="transform-origin:204px 140.6px 0px"
            d="M218.2 140.2h85"/>
      <path id="router-to-imac" class="failure-arrow"
            stroke="var(--pango-tint-c)" marker-end="url(#disconnection-pointer)"
            style="transform-origin:204px 140.6px 0px"
            d="M219 146.4l68 25.8"/>
    </g>

    <g id="x-symbols"
       stroke="var(--kōwhai-shade-a)" stroke-width="1">
      <path id="laptop-x"
            style="transform-origin:305px 101.5px 0px;"
            d="M300 96.5l10 10
               m-10 0l10-10"/>
      <path id="mobile-x"
            style="transform-origin:318.2px 140.2px 0px;"
            d="M313.2 135.2l10 10
               m-10 0l10-10"/>
      <path id="imac-x"
            style="transform-origin:295.8px 175.5px 0px;"
            d="M290.8 170.5l10 10
               m-10 0l10-10"/>
    </g>

  </g>

  <g id="house-and-contents">
    <path id="house-outline"
          fill="none" stroke="var(--kārikiōrangi-tint-a)"
          stroke-linecap="round" stroke-linejoin="round" stroke-width="1"
          d="M200.2 67.2L308.4 4.5l106.8 62-6.8-4v165h-200v-165z"/>

    <g id="laptop"
       stroke-linecap="round" stroke-linejoin="round" >
      <path fill="var(--pango-tint-b)" stroke="var(--pango)"
            stroke-width=".5"
            d="M316.2 114.2h58.5v-1l-4-5.7-50.6-.1-4 5.8v1z"/>
      <rect width="50.8" height="30.9" x="320.1" y="76.7" rx=".4" ry=".4"
            fill="var(--pango-tint-b)" stroke="var(--pango)"
            stroke-width=".5"/>
      <rect width="50.5" height="24.7" x="320.2" y="79.4" rx="0" ry="0"
            fill="var(--mā)" stroke="var(--pango)"
            stroke-width=".3" />
      <circle cx="345.4" cy="77.7" r=".5" fill="var(--pango-tint-a)"/>
      <g id="keyboard"
         fill="none" stroke="var(--pango)" stroke-width=".3">
        <path d="M320.2 110.3h50.4"/>
        <path d="M320.9 109.3H370"/>
        <path d="M321.4 108.4h48"/>
        <path d="M374.8 113.2h-20.5m-17.8 0H316"/>
        <path fill="var(--pango-tint-a)"
              d="M316.4 114h58v-.6h-58z"/>
        <path fill="var(--pango-tint-a)"
              d="M337.8 111.5H353l1.2 1.8h-17.8z"/>
      </g>
    </g>

    <g id="mobile"
       stroke-linecap="round" stroke-linejoin="round" stroke-width=".5" >
      <g transform="rotate(90)">
        <rect width="26.5" height="52.9" x="127" y="-393.9" ry="2.6"
              fill="var(--pango-tint-a)" stroke="var(--pango)"
              stroke-linejoin="round" stroke-width=".5"/>
        <path fill="var(--mā)"
              d="M127.3-391.2h25.9v45h-25.9z"/>
        <circle cx="150.1" cy="-392.5" r=".7"
                fill="var(--mā)"/>
      </g>
      <path fill="none" stroke="var(--pango)"
            d="M392.5 138.9v2.6"/>
      <path fill="none" stroke="var(--pango)"
            d="M343.6 137.6v5.3"/>
    </g>

    <g id="imac"
       stroke-linecap="round" stroke-linejoin="round" stroke-width=".5">
      <path fill="var(--pango-tint-a)"
            d="M359.9 220.5h-25c2.8-2.6 4.2-4 4.2-6.8 0-4.2-1.4-4.2-1.4-4.2h19.5s-1.4 0-1.4 4.2c0 2.8 1.4 4.2 4 6.8z"/>
      <path fill="var(--pango-tint-b)"
            d="M335.4 220.3c2.4-2.4 2.8-3 3.7-5.2 5.6 4.1 11 4.1 16.6 0 .8 2.4 1.1 2.5 3.8 5.2h-24.1z"/>
      <path fill="none" stroke="var(--pango)"
            d="M359.9 220.5h-25c2.8-2.6 4.2-4 4.2-6.8 0-4.2-1.4-4.2-1.4-4.2h19.5s-1.4 0-1.4 4.2c0 2.8 1.4 4.2 4 6.8z"/>
      <rect width="71" height="43.2" x="311.9" y="169.1" rx="2.8" ry="2.8"
            fill="var(--pango-tint-a)" stroke="var(--pango)"/>
      <circle cx="348" cy="170.5" r=".7"
              fill="var(--pango-tint-b)"/>
      <rect width="68.2" height="36.2" x="313.3" y="171.9" rx="0" ry="0"
            fill="var(--mā)"/>
    </g>

    <g id="router"
       fill="var(--kārikiōrangi-tint-a)" stroke="var(--pango)"
       stroke-linecap="round" stroke-linejoin="miter" stroke-width=".5">
      <rect width="11" height="61.9" x="208.6" y="102.4" ry="2.1"/>
      <circle cy="108.7" cx="214.4" r="3.3"
              fill="var(--pango-tint-a)"/>
      <path id="antenna"
            d="M215.8 110.4l24.5-8.8c2.3-.9 1.6-3.5-1-2.9
               l-25 7.3c-3.1 1-1.8 5.6 1.5 4.4z"/>
      <g id="wifi-waves"
         fill="none" stroke="var(--kārikiōrangi-tint-a)"
         style="transform-origin:240px 100px 0px">
        <path d="M245 102.4a5.4 5.4 0 00-2.3-7.2"/>
        <path d="M249.4 104.3a9.7 9.7 0 00-4.1-13.2"/>
        <path d="M253.8 106.6a14.6 14.6 0 00-6.3-19.8"/>
      </g>
      <g id="router-lights"
         fill="var(--mā)" stroke="var(--pango)"  stroke-width=".5">
        <circle r="1.5" cx="213.5" cy="158.2"/>
        <circle r="1.5" cx="213.5" cy="152.1"/>
        <circle r="1.5" cx="213.5" cy="145.9"/>
      </g>
    </g>
  </g>

  <g id="internet-symbol"
     fill="none" stroke="var(--waiporoporo-tint-a)" stroke-width=".5">
    <g fill="var(--waiporoporo)" >
      <ellipse cx="43.2" cy="140.6" rx="33" ry="32.9"/>
      <ellipse cx="43.2" cy="140.6" rx="24.2" ry="32.9"/>
      <ellipse cx="43.2" cy="140.6" rx="8.8" ry="32.9"/>
    </g>
    <path fill="none"
          d="M43.2 149.3c-11.6 0-22.5-.4-32-1
             m0-15.4a440.7 440.7 0 0164 0
             m.1 15.3c-9.5.7-20.4 1.1-32 1.1"/>
    <path fill="none"
          d="M43.2 162.5c-9.2 0-18-.6-26-1.8
             m.1-40.3a185.5 185.5 0 0152.2 0
             m-.2 40.3c-8 1.2-16.8 1.8-26 1.8"/>
  </g>


  <g id="labels"
    fill="var(--pango)" font-family="IBM Plex Mono, monospace" font-size="8">
    <text id="request-label">
      <tspan text-anchor="middle" x="133" y="119" fill="var(--pango-tint-a)">request:</tspan>
    </text>
    <g id="internet-request">
      <text id="router-request"
            y="130">
        <tspan  text-anchor="end" x="154" fill="var(--kārikiōrangi)">72.243.14.15</tspan>
      </text>
      <text id="port-request"
            y="130">
        <tspan text-anchor="start" x="154" fill="var(--whero)">:443</tspan>
      </text>
    </g>
    <text id="router-address"
          text-anchor="start">
      <tspan x="212" y="83" fill="var(--kārikiōrangi)">72.243.14.15</tspan>
    </text>
    <g id="titles"
       fill="var(--kōwhai-shade-a)" font-size="10" font-weight="bold">
      <text id="no-port-forwarding">
        <tspan x="105" y="40" text-anchor="middle">No Port Forwarding</tspan>
      </text>
    </g>
    <g id="device-labels"
       font-size="6" text-anchor="middle">
      <g id="laptop-address">
        <text class="device-address">
          <tspan x="346" y="93" fill="var(--kārikiōrangi)">192.168.1.60</tspan>
        </text>
      </g>
      <text id="mobile-address" class="device-address"
            transform="translate(0,4)">
        <tspan x="368.5" y="138" fill="var(--kārikiōrangi)">192.168.1.70</tspan>
      </text>

      <text id="imac-address" class="device-address"
            transform="translate(0,5)">
        <tspan x="347.5" y="186" fill="var(--kārikiōrangi)">192.168.1.80</tspan>
      </text>
    </g>
  </g>

  <rect id="fade-in-out"
        width="425" height=" 234"
        fill="var(--mā)" opacity="0"/>
</svg>
