<svg xmlns="http://www.w3.org/2000/svg"
     width="96px" height="96px"
     viewBox="0 0 48 48">
  <title>Ethernet 96px</title>
  <g stroke="#303030" stroke-linejoin="round" stroke-width=".5">
    <rect id="surround"
          fill="#999"
          width="39" height="35" x="4.3" y="6.3" rx=".5" ry=".5"/>
    <path id="port"
          fill="#4d4d4d"
          d="M33.8 12.3v5h7v21.4H7.3V17.3h7v-5h3v-3h13.4v3z"/>
  </g>
  <path id="pins"
        fill="#fff"
        d="M9 33h2v5H9zm4 0h2v5h-2zm4 0h2v5h-2zm4 0h2v5h-2zm4 0h2v5h-2zm4 0h2v5h-2zm4 0h2v5h-2zm4 0h2v5h-2z"/>
</svg>
