<svg xmlns="http://www.w3.org/2000/svg"
     width="96" height="96" viewBox="0 0 48 48">
  <g stroke="#303030" stroke-linejoin="round" stroke-width="1">
  <rect id="surround"
        fill="#999"
        width="43.5" height="39.5" x="2.25" y="4.25" ry="1"/>
  <path fill="#4d4d4d"
        d="M34.07 11.75c.48 0 .7.28.7.75v4.75h7.55c.47 0 .93.38.93.84v21.7c0 .47-.46.96-.93.96H5.68c-.47 0-.93-.5-.93-.96V18.1c0-.46.44-.83.91-.84h7.58V12.5c0-.47.27-.75.69-.75h1.82V8.7c0-.46.45-.95.92-.95h14.66c.47 0 .92.49.92.95v3.05z"/>
  </g>
  <g id="pins"
     fill="#fff">
    <rect width="2" height="6" x="9" y="34"/>
    <rect width="2" height="6" x="13" y="34"/>
    <rect width="2" height="6" x="17" y="34"/>
    <rect width="2" height="6" x="21" y="34"/>
    <rect width="2" height="6" x="25" y="34"/>
    <rect width="2" height="6" x="29" y="34"/>
    <rect width="2" height="6" x="33" y="34"/>
    <rect width="2" height="6" x="37" y="34"/>
  </g>
</svg>
