<svg xmlns="http://www.w3.org/2000/svg"
     width="48" height="48"
     viewBox="0 0 48 48">
  <title>Ethernet 48px</title>
  <g stroke="#303030" stroke-linejoin="round">
    <rect id="surround"
          fill="#999"
          width="39" height="35" x="4.5" y="6.5" rx=".5" ry=".5"/>
    <path id="port"
          fill="#4d4d4d"
          d="M33.5 12.5v5h7v21H7.7l-.2-21h7v-5h3v-3h13v3z"/>
  </g>
  <path id="pins"
        fill="#fff"
        d="M9 33h2v5H9zM13 33h2v5h-2zM17 33h2v5h-2zM21 33h2v5h-2zM25 33h2v5h-2zM29 33h2v5h-2zM33 33h2v5h-2zM37 33h2v5h-2z"/>
</svg>
