<svg xmlns="http://www.w3.org/2000/svg"
     width="96px" height="96px"
     viewBox="0 0 48 48">
  <title>Internet 96px</title>
  <style>/* <![CDATA[ */
    .packet {
      stroke-dasharray: .04 .002 .008 .004 .006 .006 .004 .008 .002 1;
      stroke-dashoffset: 1.074;
    }
    #a { animation: route-packet 2.8s .4s linear infinite; }
    #b { animation: route-packet 2.2s .8s linear infinite; }
    #c { animation: route-packet 3.2s 1s linear infinite; }
    #d { animation: route-packet 3.5s 1.5s linear infinite; }
    #e { animation: route-packet 2.5s 1s linear infinite; }
    #f { animation: route-packet 3s linear infinite; }
    #g { animation: route-packet 3.6s 1.8s linear infinite; }

    @keyframes route-packet {
      0% { stroke-dashoffset: 0.074; opacity: 0; }
      1% { opacity: 1; }
      99% { opacity: 1; }
      100% { stroke-dashoffset: 1.074; opacity: 0; }
    }
  /* ]]> */</style>
  <g id="globe"
     fill="#999" stroke="#303030" stroke-width=".5">
    <circle cx="24" cy="24" r="17.75"/>
    <ellipse cx="24" cy="24" rx="13" ry="17.75"/>
    <ellipse cx="24" cy="24" rx="4.75" ry="17.75"/>
    <path id="latitude-lines"
          fill="none"
          d="M6.79 19.85c11.46-.84 23-.84 34.47 0
             m0 8.25c-5.1.38-10.97.6-17.23.6-6.27 0-12.18-.23-17.29-.55
             M10.01 13.07a99.88 99.88 0 0128.14.03
             m-.11 21.74c-9.6 1.22-18.93 1.34-28.03 0"/>
  </g>
  <g id="packets"
     fill="none" stroke="#fff" stroke-width=".5">
    <path id="a"
          class="packet"
          pathLength="1"
          opacity="0"
          d="m 38.04,13.09 c -1.39,-0.19 -2.68,-0.34 -4.06,-0.49 2.76,4.77 3.69,10.38 2.62,15.8 -2.69,0.14 -5.36,0.17 -8.05,0.27 0.15,-1.5 0.17,-3.41 0.17,-5.08 0,-1.62 -0.05,-2.84 -0.17,-4.32 -3.03,-0.05 -6.06,-0.05 -9.1,0 -0.12,1.48 -0.2,2.7 -0.2,4.32 0,4.46 0.38,8.73 1.2,12.18 -3.51,-0.12 -7.02,-0.42 -10.51,-0.92"/>
    <path id="b"
          class="packet"
          pathLength="1"
          opacity="0"
          d="m 38.04,34.84 c -1.34,0.15 -2.65,0.28 -4,0.45 2.02,-3.41 3.05,-7.32 2.99,-11.29 0,-1.54 -0.19,-3.03 -0.42,-4.45 -2.69,-0.14 -5.34,-0.2 -8.04,-0.29 0.15,1.5 0.17,3.07 0.17,4.74 0,1.62 -0.05,3.18 -0.17,4.66 -3.14,0.06 -6.2,0.01 -9.13,0 -0.11,-1.55 -0.16,-3.10 -0.16,-4.66 0,-4.46 0.5,-8.63 1.2,-11.83 -3.47,0.05 -7.02,0.44 -10.46,0.9"/>
    <path id="c"
          class="packet"
          pathLength="1"
          opacity="0"
          d="m 9.94,34.85 c 3.44,0.45 0.7,0.42 4.05,0.49 C 11.22,30.65 10.42,24.87 11.39,19.56 14.72,19.28 23.45,19.11 28.56,19.26 c 0.18,3.23 0.3,6.23 0,9.4 2.7,-0.1 5.36,-0.13 8.05,-0.27 0.99,-5.43 0.22,-10.92 -2.63,-15.79 1.38,0.15 2.67,0.3 4.06,0.49"/>
    <path id="d"
          class="packet"
          pathLength="1"
          opacity="0"
          d="m 10.02,13.07 c 3.44,-0.46 6.99,-0.85 10.46,-0.9 -0.7,3.2 -1.2,7.37 -1.2,11.83 -0.00,1.55 0.04,3.10 0.16,4.66 2.93,0.01 5.99,0.06 9.13,0 0.12,-1.48 0.17,-3.04 0.17,-4.66 0,-1.67 -0.02,-3.24 -0.17,-4.74 2.7,0.09 5.35,0.15 8.04,0.29 0.23,1.42 0.42,2.91 0.42,4.45 0.06,3.96 -0.96,7.87 -2.99,11.29 1.35,-0.17 2.66,-0.3 4,-0.45"/>
    <path id="e"
          class="packet"
          pathLength="1"
          opacity="0"
          d="m 41.26,19.85 c -1.15,-0.08 -3.49,-0.24 -4.67,-0.28 -0.7,-3.62 -1.73,-5.28 -2.6,-6.97 -2.7,-0.15 -3.77,-0.35 -6.46,-0.44 0.45,1.9 0.9,5.12 1.03,7.1 h -9.12 c 0.15,-2.39 0.5,-4.76 1.03,-7.09 -3.47,0.05 -7.02,0.44 -10.46,0.9"/>
    <path id="f"
          class="packet"
          pathLength="1"
          opacity="0"
          d="m 6.74,28.15 c 0.8,0.08 4.65,0.25 4.65,0.25 0.42,2.4 1.53,5.32 2.6,6.94 0,0 4.73,0.38 6.46,0.42 0.62,2.17 1.44,5.86 3.55,5.99 2.55,0.15 4.31,-7.68 4.56,-13.09 2.7,-0.08 5.36,-0.13 8.05,-0.27 -0.33,2 -1.44,5.3 -2.56,6.9 1.39,-0.1 2.75,-0.3 3.99,-0.45"/>
    <path id="g"
          class="packet"
          pathLength="1"
          opacity="0"
          d="M 38.04,13.09 C 37.33,13 35.25,12.74 33.99,12.6 31.76,9.41 28.9,6.27 24,6.25 16.48,6.22 12.13,14.24 11.38,19.62 9.41,19.65 8.31,19.74 6.79,19.85"/>
  </g>
</svg>
