<svg xmlns="http://www.w3.org/2000/svg"
    width="96" height="96" viewBox="0 0 48 48">
  <title>Router 96px</title>
  <style>/* <![CDATA[ */
    #wifi-a { animation: fade-a 6s linear infinite; }
    @keyframes fade-a {
      0% { opacity: 0; }
      10%, 80% { opacity: 1; }
      90%, 100% { opacity: 0; }
    }
    #wifi-b { animation: fade-b 6s linear infinite; }
    @keyframes fade-b {
      0%, 5% { opacity: 0; }
      15%, 85% { opacity: 1; }
      95%, 100% { opacity: 0; }
    }
    #wifi-c { animation: fade-c 6s linear infinite; }
    @keyframes fade-c {
      0%, 10% { opacity: 0; }
      20%, 90% { opacity: 1; }
      100% { opacity: 0; }
    }
    #light-a { animation: blink-a 4s linear infinite; }
    @keyframes blink-a {
      0%,10%,      23%,70%,      73%,     87%,100% { fill-opacity: 0.5; }
            11%,22%,      71%,72%,   74%,86%        { fill-opacity: 1; }
    }
    /* ]]> */</style>
  <g id="wifi-waves"
         fill="none" stroke="#999" stroke-linecap="round" stroke-width="1">
    <path id="wifi-a"
          d="M37.94 12.1a3.1 3.1 0 012.55-.63 3.1 3.1 0 012.12 1.56"/>
    <path id="wifi-b"
          d="M36.45 9.21a7.17 7.9 0 018.73 1.8"/>
    <path id="wifi-c"
          d="M34.72 6.49a10.97 12.4 0 0113.03 2.6"/>
  </g>
  <rect id="router-base"
        fill="#737373" stroke="#303030" stroke-width=".5"
        width="39.6" height="7.04" x=".25" y="28.45" ry="1.37"/>
  <g id="lights"
     fill="#fff" stroke="#4d4d4d" stroke-width=".25">
    <circle id="light-a"
            cx="4.25" cy="31.75" r="1"/>
    <circle id="light-b"
            cx="8.25" cy="31.75" r="1"/>
    <circle id="light-c"
            cx="12.25" cy="31.75" r="1"/>
  </g>
  <circle id="antenna-base"
          fill="#4d4d4d" stroke="#303030" stroke-width=".25"
          cx="35.75" cy="31.75" r="2" />
  <path id="antenna"
        fill="#737373" stroke="#303030" stroke-width=".5"
        d="M34.82 30.82l4.01-16.09c.43-1.5 2.13-1.2 1.9.42l-3.06 16.3c-.38 2.07-3.41 1.53-2.85-.63z"/>
</svg>
