<svg xmlns="http://www.w3.org/2000/svg"
     width="48px" height="48px"
     viewBox="0 0 48 48">
  <title>
    Router 48px
  </title>
  <style>/* <![CDATA[ */
    #wifi-a { animation: fade-a 6s linear infinite; }
    @keyframes fade-a {
      0% { opacity: 0; }
      10%, 80% { opacity: 1; }
      90%, 100% { opacity: 0; }
    }
    #wifi-b { animation: fade-b 6s linear infinite; }
    @keyframes fade-b {
      0%, 5% { opacity: 0; }
      15%, 85% { opacity: 1; }
      95%, 100% { opacity: 0; }
    }
    #wifi-c { animation: fade-c 6s linear infinite; }
    @keyframes fade-c {
      0%, 10% { opacity: 0; }
      20%, 90% { opacity: 1; }
      100% { opacity: 0; }
    }
    #light-a { animation: blink-a 4s linear infinite; }
    @keyframes blink-a {
      0%,10%,      23%,70%,      73%,     87%,100% { fill-opacity: 0.5; }
            11%,22%,      71%,72%,   74%,86%        { fill-opacity: 1; }
    }
  /* ]]> */</style>
  <g id="wifi-waves"
         fill="none" stroke="#999" stroke-linecap="round" stroke-width="1">
    <path id="wifi-a"
          d="M35.2 10.6a3 3 0 012.3-1.1 3 3 0 012.4 1.1"/>
    <path id="wifi-b"
          d="M33.1 8.1a7.8 7.1 78.6 018.9 0"/>
    <path id="wifi-c"
          d="M31 6a12.3 10.9 78.6 0113 0"/>
  </g>
  <rect id="router-base"
        fill="#737373" stroke="#303030" stroke-width="1"
        width="41" height="9" x="2.5" y="27.5" rx="1.5" ry="1.5"/>
  <g id="lights"
     fill="#fff" stroke="#4d4d4d" stroke-width=".5">
    <circle id="light-a"
            cx="7" cy="32" r="1.75"/>
    <circle id="light-b"
            cx="13" cy="32" r="1.75"/>
    <circle id="light-c"
            cx="19" cy="32" r="1.75"/>
  </g>
  <circle id="antenna-base"
          fill="#4d4d4d" stroke="#303030" stroke-width=".5"
          cx="37" cy="32" r="2.8"/>
  <path id="antenna"
        fill="#737373" stroke="#303030"
        d="M36 14.3c.3-2.3 2.8-2.3 3 0l.5 16.7c.1 3-4.1 3-4 0z"/>
</svg>
