<svg xmlns="http://www.w3.org/2000/svg"
     width="96px" height="96px"
     viewBox="0 0 48 48">
  <title>Static IP 96px</title>
  <g fill="#999" stroke="#303030"
     stroke-width=".5" stroke-linecap="butt" stroke-linejoin="round">
    <path id="boxes"
          d="M2.5 32.5h9v9h-9zM19.5 32.5h9v9h-9zM36.5 32.5h9v9h-9z"/>
    <path id="routes" fill="none"
          d="M6.75 31v-5.75h34.5v5.75M24 21v10"/>
    <path id="pin"
          fill-rule="evenodd"
          d="M29.5 9.98c0 4.61-5.5 9.52-5.5 9.52
             s-5.5-4.9-5.5-9.52a5.49 5.49 0 0111 0
             M25.5 10a1.5 1.5 0 01-1.5 1.5 1.5 1.5 0 01-1.5-1.5
             A1.5 1.5 0 0124 8.5a1.5 1.5 0 011.5 1.5z"/>
  </g>
</svg>
