<svg xmlns="http://www.w3.org/2000/svg"
     width="96" height="96"
     viewBox="0 0 48 48">
  <style>/* <![CDATA[ */
  /* comment or delete <style> section to remove animation */
    #wave-a { animation: fade-a 6s linear infinite; }
    @keyframes fade-a {
      0% { opacity: 0; }
      10%, 90% { opacity: 1; }
      100% { opacity: 0; }
    }
    #wave-b { animation: fade-b 6s linear infinite; }
    @keyframes fade-b {
      0%, 5% { opacity: 0; }
      15%, 85% { opacity: 1; }
      95%, 100% { opacity: 0; }
    }
    #wave-c { animation: fade-c 6s linear infinite; }
    @keyframes fade-c {
      0%, 10% { opacity: 0; }
      20%, 80% { opacity: 1; }
      90%, 100% { opacity: 0; }
    }
  /* ]]> */</style>
  <g fill="#999" stroke="#303030" stroke-width=".5">
    <circle cx="24" cy="40" r="1.75"/>
    <path id="wave-a"
          d="M24 28.12c-2.7 0-4.79.74-6.26 1.59-1.47.84-2.48 1.88-2.62 1.99l2.18 2.73c.68-.54 1.17-1.1 2.19-1.69A8.69 8.69 0 0124 31.62c2.07 0 3.5.55 4.54 1.15 1.04.6 1.46 1.13 2.15 1.67l2.17-2.74c-.02-.02-1.09-1.1-2.56-1.95a12.44 12.44 0 00-6.3-1.63z"/>
    <path id="wave-b"
          d="M24 16a22 22 0 00-10.96 3.02c-2.73 1.56-4.64 3.36-5.16 3.78l2.2 2.73c.9-.73 2.35-2.13 4.7-3.48A18.43 18.43 0 0124 19.5c3.77-.01 6.87 1.24 9.2 2.62 1.17.69 2.14 1.41 2.9 2.02.75.6 1.2 1.05 1.69 1.42l2.11-2.8c-.1-.08-.76-.66-1.6-1.34-.85-.68-1.96-1.51-3.31-2.31a21.4 21.4 0 00-11-3.11z"/>
    <path id="wave-c"
          d="M24 3.7A32.73 32.73 0 007.41 8.27c-2 1.16-3.6 2.36-4.77 3.32-1.18.95-2.1 1.8-2.1 1.8l2.13 2.78c.58-.45 1.11-1 2.18-1.87a33.9 33.9 0 014.33-3.01 28.93 28.93 0 0129.52-.1 32.99 32.99 0 014.3 2.97c1.07.88 1.7 1.5 2.27 1.95l2.15-2.76c-.15-.11-1.03-.93-2.21-1.9a36.48 36.48 0 00-4.75-3.3A32.53 32.53 0 0024 3.7z"/>
  </g>
</svg>
